<svg xmlns="http://www.w3.org/2000/svg" viewBox="0 0 33.22 34.3"><defs><style>.cls-1{fill:#6c608a;}</style></defs><g id="图层_2" data-name="图层 2"><g id="图层_1-2" data-name="图层 1"><path class="cls-1" d="M29.89,15.17a4.9,4.9,0,0,1,2,.43l-6,15h0a4.64,4.64,0,0,1-4.35,2.75,5,5,0,0,1-2-.42l6.14-15.31a4.69,4.69,0,0,1,4.18-2.4m0-1a5.68,5.68,0,0,0-5.07,2.93l0,0,0,.05L18.65,32.51l-.36.9.88.39a6,6,0,0,0,2.42.5,5.79,5.79,0,0,0,4.82-2.51l.1,0,.36-.9,6-14.95.36-.89-.88-.4a6,6,0,0,0-2.45-.51Z"/><polyline class="cls-1" points="18.78 23.82 18.78 23.82 18.78 23.82"/><path class="cls-1" d="M8.46,6.1a4.72,4.72,0,0,1,4.19,2.4l2,5-2.77,6.64L6.42,6.53a5.1,5.1,0,0,1,2-.43m0-1A6,6,0,0,0,6,5.62L5.14,6l.36.89L11,20.54l.91,2.27.94-2.25,2.77-6.65.16-.37-.15-.38-2-5,0-.05,0-.05A5.69,5.69,0,0,0,8.46,5.1Z"/><polyline class="cls-1" points="25.75 6.48 25.75 6.48 25.75 6.48"/><path class="cls-1" d="M23.74,6.06a5,5,0,0,1,2,.42L15.91,30.9h0a4.69,4.69,0,0,1-4.18,2.4h-.1a4.66,4.66,0,0,1-4.36-2.75h0l-6-14.95a4.86,4.86,0,0,1,2-.43,4.71,4.71,0,0,1,4.19,2.4L11.67,28,19.38,8.81h0a4.67,4.67,0,0,1,4.36-2.75m0-1A5.79,5.79,0,0,0,18.9,7.59l-.09,0-.35.88L11.67,25.28,8.44,17.2l0-.05,0,0a5.67,5.67,0,0,0-5.07-2.93,6,6,0,0,0-2.44.51l-.88.4L.36,16l6,15,.36.89.1,0a5.79,5.79,0,0,0,4.83,2.53h.07a5.68,5.68,0,0,0,5.1-2.93l0-.05,0,0L26.68,6.85,27,6l-.89-.39a6,6,0,0,0-2.41-.5Z"/><path class="cls-1" d="M16.55,1a2.76,2.76,0,0,1,2.86,2.65A2.76,2.76,0,0,1,16.55,6.3a2.76,2.76,0,0,1-2.86-2.65A2.76,2.76,0,0,1,16.55,1m0-1a3.76,3.76,0,0,0-3.86,3.65A3.76,3.76,0,0,0,16.55,7.3a3.76,3.76,0,0,0,3.86-3.65A3.76,3.76,0,0,0,16.55,0Z"/></g></g></svg>